<svg viewBox="0 0 48 48" xmlns="http://www.w3.org/2000/svg"><path d="m41.6 11.12c1.2-1.5.76-1.12 1.4-1.12a5 5 0 1 0 -5-4.51l-3.9 3.42c-15.22-2.91-34.1 1.34-34.1 9.09 0 .14 1.9 12.37 2.57 16.75a15 15 0 0 0 12.43 12.54 57.58 57.58 0 0 0 18.06 0 15 15 0 0 0 12.4-12.54l2.4-15.55c1.02-3.72-2.72-6.53-6.26-8.08zm1.4-9.12c4 0 4 6 0 6s-4-6 0-6zm-2.5 7.3-7.28 9.07a1 1 0 0 0 1.56 1.26l2.92-3.63c7.32 3.13-4 6-13.7 6s-16-2.07-16-4c0-3.21 12.57-4.36 20.07-3.86l-4.73 4.1a1 1 0 0 0 1.32 1.52l14.06-12.21a5 5 0 0 0 1.78 1.75zm-8.35 1.31c-3 2.63-.3 1.39-8.15 1.39-24.14 0-24.13 12 0 12 19.83 0 20.61-6.91 15-9.62l1.31-1.63c3.58 1.47 5.69 3.35 5.69 5.25-1.66 10.72-42.37 10.5-44 0 .09-5.38 15.63-9.61 30.15-7.39zm.56 34.71a56.53 56.53 0 0 1 -17.42 0 13 13 0 0 1 -10.74-10.87l-1.81-11.71c8.84 7 33.75 7 42.52 0l-1.81 11.7a13 13 0 0 1 -10.74 10.88z"/><path d="m28 33c0-3.64.93-3-7-3-1.2 0-1 1.17-1 3-1.85 0-3-.2-3 1 0 7.89-.64 7 3 7 0 3.64-.93 3 7 3 1.2 0 1-1.17 1-3 1.85 0 3 .2 3-1 0-7.89.64-7-3-7zm1 6c-3.37 0-3-.21-3 3h-4c0-3.37.21-3-3-3v-4c3.37 0 3 .21 3-3h4c0 3.37-.21 3 3 3z"/></svg>