<svg width="34" height="27" viewBox="0 0 34 27" fill="none" xmlns="http://www.w3.org/2000/svg">
<g clip-path="url(#clip0_3200_680)">
<path d="M4.57764e-05 13.2403C0.410347 13.8747 0.903027 14.1183 1.61863 13.6785C1.80278 13.564 2.08547 13.5902 2.32292 13.5902C5.36464 13.5853 8.40635 13.5542 11.4465 13.6196C11.9521 13.6311 12.5869 13.9515 12.9245 14.3423C13.8759 15.4426 14.7127 16.646 15.5705 17.8265C15.7191 18.0309 15.7013 18.3644 15.858 18.5557C16.0793 18.8255 16.3846 19.1836 16.6705 19.1999C16.9597 19.2163 17.4168 18.9334 17.5444 18.6604C18.176 17.3098 18.6768 15.8972 19.3084 14.5483C20.1774 12.6926 21.124 10.8744 22.09 8.93366C23.1077 10.2989 24.1092 11.5971 25.0558 12.9345C25.3886 13.4054 25.7391 13.6114 26.3158 13.6016C28.0378 13.5689 29.7613 13.5738 31.4833 13.6016C31.9227 13.6082 32.3605 13.824 32.7966 13.8207C33.1568 13.8191 33.6027 13.7292 33.8433 13.5003C34.0162 13.3351 34.055 12.758 33.9047 12.5748C33.6947 12.3181 33.2505 12.1301 32.9081 12.1317C30.7645 12.1416 28.6193 12.22 26.4757 12.2478C26.3126 12.2495 26.1074 12.0614 25.9895 11.9077C25.0413 10.6553 24.1028 9.40127 23.1772 8.13413C23.0237 7.92485 23.0075 7.60275 22.8379 7.41636C22.5892 7.14332 22.2532 6.75418 21.9673 6.76563C21.662 6.77871 21.2484 7.13678 21.0982 7.4507C20.5667 8.56251 20.1726 9.74135 19.6411 10.8548C18.6865 12.8561 17.6704 14.8262 16.572 17.0253C15.5575 15.5407 14.5883 14.2049 13.7193 12.807C13.3865 12.2707 13.078 12.0974 12.4464 12.1056C8.72296 12.1497 4.99795 12.1121 1.27294 12.1448C0.846489 12.1481 0.421654 12.431 -0.00318527 12.5846C4.57764e-05 12.8037 4.57764e-05 13.0212 4.57764e-05 13.2403Z" fill="#FF6612"/>
<path d="M16.9596 26.3188C20.2727 22.9899 23.5874 19.661 26.8989 16.3288C27.2284 15.9969 27.461 15.6013 27.0265 15.2138C26.5709 14.8066 26.1849 15.1091 25.8424 15.4557C23.0252 18.3039 20.2064 21.1489 17.3973 24.0036C17.1906 24.2129 17.0565 24.4957 16.79 24.8881C15.9354 23.9709 15.2731 23.227 14.5753 22.5174C12.2993 20.2006 10.0087 17.8968 7.72459 15.5882C7.6099 15.4721 7.50975 15.2808 7.3789 15.2563C7.02676 15.1909 6.6633 15.1974 6.30308 15.1762C6.33861 15.5179 6.24977 15.9724 6.4323 16.1817C7.21737 17.0744 8.07997 17.8985 8.91995 18.7405C11.4367 21.2666 13.955 23.791 16.4717 26.3171C16.6365 26.3188 16.798 26.3188 16.9596 26.3188Z" fill="#38404F"/>
<path d="M16.832 4.25918C16.0194 3.41388 15.3119 2.4247 14.3798 1.75107C9.81162 -1.54839 3.37928 1.15429 2.45045 6.75912C2.26792 7.85621 2.39876 9.0138 2.45045 10.1403C2.46984 10.5834 2.70245 11.0396 3.2662 10.9251C3.79281 10.8189 3.83804 10.4281 3.74597 9.9196C3.21774 6.98802 4.02219 4.50934 6.45976 2.77132C10.146 0.142218 15.7852 2.44268 16.0194 7.2578C16.042 7.73522 16.0824 8.33854 16.756 8.30748C17.3844 8.27805 17.4296 7.7483 17.4426 7.2251C17.5056 4.56984 19.7057 2.25302 22.3468 1.7756C26.8423 0.96136 30.5334 5.09958 29.7386 9.39149C29.695 9.63021 29.6272 9.89671 29.6886 10.1174C29.7693 10.4101 29.905 10.8156 30.1279 10.9121C30.5883 11.1132 30.9211 10.7682 30.976 10.3202C31.081 9.46016 31.1876 8.58707 31.1521 7.72378C31.018 4.52733 28.7484 1.60883 25.7261 0.662152C22.3839 -0.384257 18.7607 1.02022 16.966 4.05644C16.8998 4.16926 16.8207 4.27553 16.832 4.25918Z" fill="#38404F"/>
</g>
<defs>
<clipPath id="clip0_3200_680">
<rect width="34" height="26" fill="white" transform="matrix(-1 0 0 1 34 0.318848)"/>
</clipPath>
</defs>
</svg>
