<svg width="22" height="30" viewBox="0 0 22 30" fill="none" xmlns="http://www.w3.org/2000/svg">
<g clip-path="url(#clip0_3200_685)">
<path d="M22 11.981C21.8004 12.8103 21.6601 13.6591 21.3904 14.4639C20.7089 16.5018 19.6257 18.3387 18.469 20.1282C16.4347 23.2758 14.113 26.2005 11.6318 28.9976C11.2668 29.4089 10.6513 29.4359 10.2855 29.017C6.87736 25.1102 3.65707 21.0623 1.33623 16.3709C0.606323 14.8955 0.00251937 13.3627 1.39645e-05 11.6694C-0.00499685 8.36215 1.33874 5.64781 3.64956 3.39627C7.53795 -0.391482 13.4708 -0.722541 17.7308 2.62436C20.3063 4.64787 21.6877 7.34955 21.9282 10.6441C21.9382 10.7809 21.9749 10.916 22 11.0512C22 11.3611 22 11.671 22 11.981ZM11.1073 27.3364C11.2276 27.2038 11.2944 27.1362 11.3545 27.0619C12.3266 25.8694 13.3229 24.6955 14.265 23.4794C16.1866 20.9981 17.9788 18.4265 19.3217 15.5677C19.913 14.3085 20.4191 13.0113 20.4107 11.5798C20.3949 8.97782 19.5505 6.68743 17.7567 4.81763C15.4517 2.41576 12.6239 1.38458 9.34936 1.97745C6.44058 2.50359 4.23165 4.1496 2.76682 6.75415C1.83898 8.40353 1.35962 10.1847 1.61684 12.0942C1.81894 13.5898 2.47035 14.936 3.16685 16.2518C4.73524 19.2128 6.70532 21.8975 8.77729 24.5097C9.5239 25.4514 10.3048 26.3652 11.1073 27.3364Z" fill="#38404F"/>
<path d="M11.146 8.61686C12.691 7.1119 14.4005 7.27236 15.5689 8.00204C16.9869 8.88796 17.5114 10.2477 17.4379 11.8861C17.3527 13.7871 16.3764 15.2237 15.0686 16.4677C14.0205 17.4651 12.8288 18.2725 11.5243 18.8847C11.2403 19.0182 10.7969 19.0748 10.5346 18.9439C8.51696 17.9431 6.68551 16.6822 5.42946 14.7381C4.55006 13.3767 4.1826 11.892 4.80144 10.3279C5.49544 8.57379 7.04378 7.30783 8.89945 7.48771C9.70369 7.56541 10.3852 7.91674 10.9673 8.47667C11.0157 8.52396 11.0733 8.56112 11.146 8.61686ZM15.9004 11.7661C15.8804 11.6243 15.8662 11.3979 15.8144 11.1809C15.573 10.1666 14.9701 9.4614 13.9646 9.21142C12.9866 8.96903 12.3285 9.53825 11.7765 10.2679C11.7514 10.3017 11.7306 10.338 11.7055 10.3718C11.3481 10.854 10.6524 10.8616 10.2724 10.3895C10.1146 10.1936 9.96676 9.98586 9.78887 9.81019C9.27192 9.30094 8.66812 8.99775 7.93654 9.22071C7.06883 9.48505 6.46336 10.0585 6.20781 10.9537C5.90131 12.0263 6.29633 12.9519 6.8851 13.8032C7.93237 15.3157 9.4022 16.325 10.9706 17.2024C11.0675 17.2565 11.2487 17.2463 11.3489 17.1906C12.5824 16.4998 13.7533 15.7169 14.7112 14.6561C15.4252 13.8648 15.8662 12.9426 15.9004 11.7661Z" fill="#38404F"/>
<path d="M15.9004 11.7662C15.8661 12.9426 15.4252 13.8657 14.7112 14.6562C13.7533 15.7169 12.5824 16.4998 11.3489 17.1906C11.2487 17.2472 11.0675 17.2565 10.9706 17.2024C9.40219 16.325 7.93235 15.3166 6.88509 13.8032C6.29632 12.9527 5.9013 12.0263 6.20779 10.9537C6.46335 10.0585 7.06882 9.48507 7.93653 9.22073C8.6681 8.99777 9.27274 9.30096 9.78886 9.81021C9.96674 9.98588 10.1146 10.1936 10.2724 10.3896C10.6524 10.8617 11.3481 10.8541 11.7055 10.3718C11.7306 10.3381 11.7514 10.3009 11.7765 10.268C12.3285 9.53827 12.9866 8.96906 13.9645 9.21144C14.97 9.46058 15.573 10.1666 15.8144 11.1809C15.8661 11.3979 15.8803 11.6243 15.9004 11.7662Z" fill="#FF6612"/>
</g>
<defs>
<clipPath id="clip0_3200_685">
<rect width="22" height="29" fill="white" transform="translate(0 0.318848)"/>
</clipPath>
</defs>
</svg>
